<?xml version="1.0" encoding="UTF-8"?>
<!DOCTYPE svg PUBLIC "-//W3C//DTD SVG 1.1//EN" "http://www.w3.org/Graphics/SVG/1.1/DTD/svg11.dtd">
<svg xmlns="http://www.w3.org/2000/svg" version="1.1" width="244px" height="73px" style="shape-rendering:geometricPrecision; text-rendering:geometricPrecision; image-rendering:optimizeQuality; fill-rule:evenodd; clip-rule:evenodd" xmlns:xlink="http://www.w3.org/1999/xlink">
<g><path style="opacity:0.995" fill="#5ee1e5" d="M 25.5,-0.5 C 28.5,-0.5 31.5,-0.5 34.5,-0.5C 34.5,5.16667 34.5,10.8333 34.5,16.5C 22.7066,17.9605 16.3732,24.6271 15.5,36.5C 10.1667,36.5 4.83333,36.5 -0.5,36.5C -0.5,33.1667 -0.5,29.8333 -0.5,26.5C 3.88824,13.3979 12.5549,4.39792 25.5,-0.5 Z"/></g>
<g><path style="opacity:0.911" fill="#fffefe" d="M 48.5,35.5 C 39.5,35.5 30.5,35.5 21.5,35.5C 24.1973,22.6528 31.5306,19.1528 43.5,25C 46.1145,28.0619 47.7812,31.5619 48.5,35.5 Z"/></g>
<g><path style="opacity:0.914" fill="#fefffe" d="M 75.5,29.5 C 78.8333,29.5 82.1667,29.5 85.5,29.5C 86.6838,35.8897 88.1838,42.2231 90,48.5C 91.8162,42.2231 93.3162,35.8897 94.5,29.5C 97.8333,29.5 101.167,29.5 104.5,29.5C 104.5,39.8333 104.5,50.1667 104.5,60.5C 102.5,60.5 100.5,60.5 98.5,60.5C 98.6662,54.4908 98.4995,48.4908 98,42.5C 96.6667,47.8333 95.3333,53.1667 94,58.5C 91.3333,61.1667 88.6667,61.1667 86,58.5C 84.6667,53.1667 83.3333,47.8333 82,42.5C 81.5005,48.4908 81.3338,54.4908 81.5,60.5C 79.5,60.5 77.5,60.5 75.5,60.5C 75.5,50.1667 75.5,39.8333 75.5,29.5 Z"/></g>
<g><path style="opacity:0.862" fill="#5ce1e5" d="M 144.5,29.5 C 149.267,29.1908 153.934,29.6908 158.5,31C 161.596,33.0287 163.262,35.862 163.5,39.5C 161.599,39.4332 159.766,39.7665 158,40.5C 153.421,34.387 148.421,34.0536 143,39.5C 141.03,44.7928 141.863,49.6261 145.5,54C 148.5,56 151.5,56 154.5,54C 156.107,52.951 156.773,51.451 156.5,49.5C 154.167,49.5 151.833,49.5 149.5,49.5C 149.5,47.5 149.5,45.5 149.5,43.5C 154.167,43.5 158.833,43.5 163.5,43.5C 163.803,48.43 163.469,53.2633 162.5,58C 155.328,62.1845 147.995,62.5178 140.5,59C 134.06,51.9875 132.894,44.1541 137,35.5C 139.114,32.8792 141.614,30.8792 144.5,29.5 Z"/></g>
<g><path style="opacity:0.843" fill="#5ce1e5" d="M 217.5,29.5 C 224.833,29.5 232.167,29.5 239.5,29.5C 239.5,31.8333 239.5,34.1667 239.5,36.5C 234.5,36.5 229.5,36.5 224.5,36.5C 224.5,38.5 224.5,40.5 224.5,42.5C 228.833,42.5 233.167,42.5 237.5,42.5C 237.5,44.5 237.5,46.5 237.5,48.5C 233.167,48.5 228.833,48.5 224.5,48.5C 224.5,52.5 224.5,56.5 224.5,60.5C 222.167,60.5 219.833,60.5 217.5,60.5C 217.5,50.1667 217.5,39.8333 217.5,29.5 Z"/></g>
<g><path style="opacity:0.858" fill="#fefffe" d="M 115.5,30.5 C 117.369,32.6353 118.036,35.3019 117.5,38.5C 118.5,38.5 119.5,38.5 120.5,38.5C 120.5,40.1667 120.5,41.8333 120.5,43.5C 119.5,43.5 118.5,43.5 117.5,43.5C 117.5,47.5 117.5,51.5 117.5,55.5C 118.833,55.5 120.167,55.5 121.5,55.5C 121.854,61.2038 119.187,63.0371 113.5,61C 112.692,60.6924 112.025,60.1924 111.5,59.5C 110.549,54.2302 110.215,48.8968 110.5,43.5C 109.5,43.5 108.5,43.5 107.5,43.5C 107.5,41.8333 107.5,40.1667 107.5,38.5C 108.5,38.5 109.5,38.5 110.5,38.5C 110.34,36.8008 110.506,35.1341 111,33.5C 112.652,32.6006 114.152,31.6006 115.5,30.5 Z"/></g>
<g><path style="opacity:0.923" fill="#fffefe" d="M 43.5,72.5 C 37.1667,72.5 30.8333,72.5 24.5,72.5C 11.8402,67.519 3.50684,58.519 -0.5,45.5C -0.5,42.5 -0.5,39.5 -0.5,36.5C 4.83333,36.5 10.1667,36.5 15.5,36.5C 17.9209,51.7693 26.5876,57.6026 41.5,54C 48.6003,49.9788 52.267,43.8122 52.5,35.5C 57.8333,35.5 63.1667,35.5 68.5,35.5C 68.4466,53.5342 60.1132,65.8676 43.5,72.5 Z"/></g>
<g><path style="opacity:0.077" fill="#fefffe" d="M 71.5,35.5 C 72.5735,36.2506 72.7401,37.2506 72,38.5C 71.5172,37.552 71.3505,36.552 71.5,35.5 Z"/></g>
<g><path style="opacity:0.987" fill="#62e1e6" d="M 21.5,35.5 C 30.5,35.5 39.5,35.5 48.5,35.5C 47.1476,46.8528 40.8143,51.3528 29.5,49C 24.1351,46.104 21.4684,41.604 21.5,35.5 Z"/></g>
<g><path style="opacity:0.854" fill="#5ce1e5" d="M 175.5,37.5 C 186.833,36.9984 191.667,42.3317 190,53.5C 185.494,61.8091 178.994,63.6424 170.5,59C 165.335,52.8354 165.335,46.6687 170.5,40.5C 172.145,39.3037 173.811,38.3037 175.5,37.5 Z M 176.5,43.5 C 182.303,43.81 184.47,46.81 183,52.5C 178.307,57.0307 175.14,56.0307 173.5,49.5C 174.129,47.2592 175.129,45.2592 176.5,43.5 Z"/></g>
<g><path style="opacity:0.871" fill="#5ce1e5" d="M 191.5,39.5 C 196.501,37.4635 200.334,38.7969 203,43.5C 205.466,38.9858 209.299,37.4858 214.5,39C 211.915,42.1755 209.581,45.5088 207.5,49C 209.622,52.6256 211.955,56.1256 214.5,59.5C 209.314,61.7223 205.481,60.3889 203,55.5C 201.471,56.7287 200.304,58.2287 199.5,60C 196.773,60.8184 194.106,60.6517 191.5,59.5C 193.833,56.1667 196.167,52.8333 198.5,49.5C 196.144,46.1002 193.811,42.7669 191.5,39.5 Z"/></g>
<g><path style="opacity:0.822" fill="#fefffe" d="M 123.5,54.5 C 125.833,54.5 128.167,54.5 130.5,54.5C 130.5,56.5 130.5,58.5 130.5,60.5C 128.167,60.5 125.833,60.5 123.5,60.5C 123.5,58.5 123.5,56.5 123.5,54.5 Z"/></g>
</svg>
